<svg width="4055" height="521" xmlns="http://www.w3.org/2000/svg" xmlns:xlink="http://www.w3.org/1999/xlink" xml:space="preserve" overflow="hidden"><g transform="translate(-275 -760)"><text font-family="Aptos,Aptos_MSFontService,sans-serif" font-weight="400" font-size="248" transform="matrix(1 0 0 1 542.784 1063)">C</text><text font-family="Aptos,Aptos_MSFontService,sans-serif" font-weight="400" font-size="165" transform="matrix(1 0 0 1 714.086 1124)">3</text><text font-family="Aptos,Aptos_MSFontService,sans-serif" font-weight="400" font-size="248" transform="matrix(1 0 0 1 802.315 1063)">H</text><text font-family="Aptos,Aptos_MSFontService,sans-serif" font-weight="400" font-size="165" transform="matrix(1 0 0 1 977.054 1124)">6</text><text font-family="Aptos,Aptos_MSFontService,sans-serif" font-weight="400" font-size="248" transform="matrix(1 0 0 1 1065.28 1063)">O</text><text font-family="Aptos,Aptos_MSFontService,sans-serif" font-weight="400" font-size="165" transform="matrix(1 0 0 1 1246.33 1124)">3</text><text font-family="Aptos,Aptos_MSFontService,sans-serif" font-weight="400" font-size="248" transform="matrix(1 0 0 1 1384.97 1063)">→</text><text font-family="Aptos,Aptos_MSFontService,sans-serif" font-weight="700" font-size="248" transform="matrix(1 0 0 1 1684.61 1063)">3 </text><text font-family="Aptos,Aptos_MSFontService,sans-serif" font-weight="700" font-size="248" transform="matrix(1 0 0 1 1867.37 1063)">CH</text><text font-family="Aptos,Aptos_MSFontService,sans-serif" font-weight="700" font-size="165" transform="matrix(1 0 0 1 2222.58 1124)">2</text><text font-family="Aptos,Aptos_MSFontService,sans-serif" font-weight="700" font-size="248" transform="matrix(1 0 0 1 2310.8 1063)">O </text><text font-family="Aptos,Aptos_MSFontService,sans-serif" font-weight="700" font-size="248" transform="matrix(1 0 0 1 2543.98 1063)">→</text><text font-family="Aptos,Aptos_MSFontService,sans-serif" font-weight="700" font-size="248" transform="matrix(1 0 0 1 2843.62 1063)">3</text><text font-family="Aptos,Aptos_MSFontService,sans-serif" font-weight="700" font-size="248" transform="matrix(1 0 0 1 3026.38 1063)">CO </text><text fill="#7F7F7F" font-family="Aptos,Aptos_MSFontService,sans-serif" font-weight="400" font-size="248" transform="matrix(1 0 0 1 3433.08 1063)">+ </text><text fill="#7F7F7F" font-family="Aptos,Aptos_MSFontService,sans-serif" font-weight="400" font-size="248" transform="matrix(1 0 0 1 3615.84 1063)">3</text><text fill="#7F7F7F" font-family="Aptos,Aptos_MSFontService,sans-serif" font-weight="400" font-size="248" transform="matrix(1 0 0 1 3798.6 1063)">H</text><text fill="#7F7F7F" font-family="Aptos,Aptos_MSFontService,sans-serif" font-weight="400" font-size="165" transform="matrix(1 0 0 1 3973.34 1124)">2</text></g></svg>